<svg width="417" height="52" viewBox="0 0 417 52" fill="none" xmlns="http://www.w3.org/2000/svg">
<path d="M8.97031 51.0016C6.63698 51.0016 4.65365 50.1849 3.02031 48.5516C1.38698 46.9182 0.570312 44.9349 0.570312 42.6016V40.6416H6.24031V42.6016C6.24031 43.3482 6.49698 44.0016 7.01031 44.5616C7.57031 45.0749 8.22365 45.3316 8.97031 45.3316H42.5703C43.317 45.3316 43.947 45.0749 44.4603 44.5616C45.0203 44.0016 45.3003 43.3482 45.3003 42.6016V31.3316C45.3003 30.5849 45.0203 29.9549 44.4603 29.4416C43.947 28.9282 43.317 28.6716 42.5703 28.6716H8.97031C6.63698 28.6716 4.65365 27.8549 3.02031 26.2216C1.38698 24.5416 0.570312 22.5582 0.570312 20.2716V9.00156C0.570312 6.66823 1.38698 4.68489 3.02031 3.05156C4.65365 1.41823 6.63698 0.601562 8.97031 0.601562H42.5703C44.9036 0.601562 46.887 1.41823 48.5203 3.05156C50.1536 4.68489 50.9703 6.66823 50.9703 9.00156V10.9616H45.3003V9.00156C45.3003 8.2549 45.0203 7.62489 44.4603 7.11156C43.947 6.55156 43.317 6.27156 42.5703 6.27156H8.97031C8.22365 6.27156 7.57031 6.55156 7.01031 7.11156C6.49698 7.62489 6.24031 8.2549 6.24031 9.00156V20.2716C6.24031 21.0182 6.49698 21.6482 7.01031 22.1616C7.57031 22.6749 8.22365 22.9316 8.97031 22.9316H42.5703C44.9036 22.9316 46.887 23.7716 48.5203 25.4516C50.1536 27.0849 50.9703 29.0449 50.9703 31.3316V42.6016C50.9703 44.9349 50.1536 46.9182 48.5203 48.5516C46.887 50.1849 44.9036 51.0016 42.5703 51.0016H8.97031Z" fill="white"/>
<path d="M93.4789 51.0016V0.671562H135.479C137.812 0.671562 139.796 1.51156 141.429 3.19156C143.062 4.8249 143.879 6.78489 143.879 9.07156V23.8416C143.879 26.1282 143.062 28.1116 141.429 29.7916C139.796 31.4249 137.812 32.2416 135.479 32.2416H99.1489V51.0016H93.4789ZM101.879 26.5016H135.479C136.226 26.5016 136.856 26.2449 137.369 25.7316C137.929 25.2182 138.209 24.5882 138.209 23.8416V9.07156C138.209 8.32489 137.929 7.6949 137.369 7.18156C136.856 6.62156 136.226 6.34156 135.479 6.34156H101.879C101.132 6.34156 100.479 6.62156 99.9189 7.18156C99.4056 7.6949 99.1489 8.32489 99.1489 9.07156V23.8416C99.1489 24.5882 99.4056 25.2182 99.9189 25.7316C100.479 26.2449 101.132 26.5016 101.879 26.5016Z" fill="white"/>
<path d="M184.674 51.0016V9.00156C184.674 6.66823 185.49 4.68489 187.124 3.05156C188.757 1.41823 190.74 0.601562 193.074 0.601562H226.674C229.007 0.601562 230.99 1.41823 232.624 3.05156C234.257 4.68489 235.074 6.66823 235.074 9.00156V51.0016H229.404V32.5916H190.344V51.0016H184.674ZM190.344 26.9216H229.404V9.00156C229.404 8.2549 229.124 7.62489 228.564 7.11156C228.05 6.55156 227.42 6.27156 226.674 6.27156H193.074C192.327 6.27156 191.674 6.55156 191.114 7.11156C190.6 7.62489 190.344 8.2549 190.344 9.00156V26.9216Z" fill="white"/>
<path d="M286.449 51.0016C284.116 51.0016 282.133 50.1849 280.499 48.5516C278.866 46.9182 278.049 44.9349 278.049 42.6016V9.00156C278.049 6.66823 278.866 4.68489 280.499 3.05156C282.133 1.41823 284.116 0.601562 286.449 0.601562H328.309V6.27156H286.449C285.703 6.27156 285.049 6.55156 284.489 7.11156C283.976 7.62489 283.719 8.2549 283.719 9.00156V42.6016C283.719 43.3482 283.976 44.0016 284.489 44.5616C285.049 45.0749 285.703 45.3316 286.449 45.3316H328.309V51.0016H286.449Z" fill="white"/>
<path d="M370.748 51.0016V0.601562H416.738V6.27156H376.418V22.9316H408.828V28.6716H376.418V45.3316H416.738V51.0016H370.748Z" fill="white"/>
</svg>
